<svg width="36" height="40" viewBox="0 0 36 40" fill="none" xmlns="http://www.w3.org/2000/svg">
<g clip-path="url(#clip0_233_36)">
<path d="M32.1068 7.82627L34.9052 12.8738V12.8767L34.993 13.034C34.9927 13.0349 34.9924 13.0358 34.9921 13.0366C34.9882 13.0486 34.9831 13.0607 34.9773 13.0722C34.9743 13.0781 34.9713 13.0832 34.9687 13.0875L3.89275 32.1758L1.0069 26.9708C1.00753 26.9687 1.00821 26.9665 1.00896 26.9642C1.01303 26.9519 1.01823 26.9394 1.02416 26.9278C1.02736 26.9215 1.03046 26.916 1.03324 26.9115L32.1068 7.82627ZM32.1066 32.1744L24.8919 27.7432V24.1213L27.658 22.4225L34.9667 26.9115C34.9695 26.916 34.9726 26.9214 34.9758 26.9276C34.9817 26.9393 34.9869 26.9518 34.991 26.9641C34.9918 26.9668 34.9926 26.9693 34.9933 26.9717L32.1066 32.1744ZM1.00664 13.0327L3.89361 7.82414L11.1053 12.2552V15.8788L8.34057 17.5774L1.03134 13.0876C1.02871 13.0833 1.02579 13.0781 1.02278 13.0722C1.01696 13.0608 1.01187 13.0486 1.00791 13.0366C1.00746 13.0353 1.00704 13.034 1.00664 13.0327ZM15.1566 38.9728V30.102L20.8434 26.6091V38.9726C20.8432 38.9732 20.843 38.9737 20.8428 38.9743C20.8396 38.9825 20.8354 38.9912 20.8305 39H15.1697C15.1645 38.9908 15.1601 38.9817 15.1568 38.9732C15.1567 38.9731 15.1567 38.9729 15.1566 38.9728ZM15.1566 13.3909V1.02599C15.1599 1.01784 15.1642 1.00893 15.1693 1H20.8316C20.8363 1.00848 20.8403 1.01694 20.8434 1.02474C20.8434 1.02477 20.8434 1.0248 20.8434 1.02482V9.89805L15.1566 13.3909Z" fill="#FFF8F8" stroke="black" stroke-width="2"/>
</g>
<defs>
<clipPath id="clip0_233_36">
<rect width="36" height="40" fill="white"/>
</clipPath>
</defs>
</svg>
